<svg width="133" height="14" viewBox="0 0 133 14" fill="none" xmlns="http://www.w3.org/2000/svg">
<path d="M5.688 13.126C4.764 13.126 3.936 12.976 3.204 12.676C2.472 12.376 1.884 11.932 1.44 11.344C1.008 10.756 0.78 10.048 0.756 9.22H4.032C4.08 9.688 4.242 10.048 4.518 10.3C4.794 10.54 5.154 10.66 5.598 10.66C6.054 10.66 6.414 10.558 6.678 10.354C6.942 10.138 7.074 9.844 7.074 9.472C7.074 9.16 6.966 8.902 6.75 8.698C6.546 8.494 6.288 8.326 5.976 8.194C5.676 8.062 5.244 7.912 4.68 7.744C3.864 7.492 3.198 7.24 2.682 6.988C2.166 6.736 1.722 6.364 1.35 5.872C0.978 5.38 0.792 4.738 0.792 3.946C0.792 2.77 1.218 1.852 2.07 1.192C2.922 0.52 4.032 0.184 5.4 0.184C6.792 0.184 7.914 0.52 8.766 1.192C9.618 1.852 10.074 2.776 10.134 3.964H6.804C6.78 3.556 6.63 3.238 6.354 3.01C6.078 2.77 5.724 2.65 5.292 2.65C4.92 2.65 4.62 2.752 4.392 2.956C4.164 3.148 4.05 3.43 4.05 3.802C4.05 4.21 4.242 4.528 4.626 4.756C5.01 4.984 5.61 5.23 6.426 5.494C7.242 5.77 7.902 6.034 8.406 6.286C8.922 6.538 9.366 6.904 9.738 7.384C10.11 7.864 10.296 8.482 10.296 9.238C10.296 9.958 10.11 10.612 9.738 11.2C9.378 11.788 8.85 12.256 8.154 12.604C7.458 12.952 6.636 13.126 5.688 13.126ZM23.1342 0.364V13H20.0562V7.798H15.2682V13H12.1902V0.364H15.2682V5.314H20.0562V0.364H23.1342ZM33.2222 10.768H28.5062L27.7502 13H24.5282L29.1002 0.364H32.6642L37.2362 13H33.9782L33.2222 10.768ZM32.4302 8.392L30.8642 3.766L29.3162 8.392H32.4302ZM45.0717 13L42.4437 8.23H41.7057V13H38.6277V0.364H43.7937C44.7897 0.364 45.6357 0.538 46.3317 0.885999C47.0397 1.234 47.5677 1.714 47.9157 2.326C48.2637 2.926 48.4377 3.598 48.4377 4.342C48.4377 5.182 48.1977 5.932 47.7177 6.592C47.2497 7.252 46.5537 7.72 45.6297 7.996L48.5457 13H45.0717ZM41.7057 6.052H43.6137C44.1777 6.052 44.5977 5.914 44.8737 5.638C45.1617 5.362 45.3057 4.972 45.3057 4.468C45.3057 3.988 45.1617 3.61 44.8737 3.334C44.5977 3.058 44.1777 2.92 43.6137 2.92H41.7057V6.052ZM59.9999 4.432C59.9999 5.164 59.8319 5.836 59.4959 6.448C59.1599 7.048 58.6439 7.534 57.9479 7.906C57.2519 8.278 56.3879 8.464 55.3559 8.464H53.4479V13H50.3699V0.364H55.3559C56.3639 0.364 57.2159 0.538 57.9119 0.885999C58.6079 1.234 59.1299 1.714 59.4779 2.326C59.8259 2.938 59.9999 3.64 59.9999 4.432ZM55.1219 6.016C55.7099 6.016 56.1479 5.878 56.4359 5.602C56.7239 5.326 56.8679 4.936 56.8679 4.432C56.8679 3.928 56.7239 3.538 56.4359 3.262C56.1479 2.986 55.7099 2.848 55.1219 2.848H53.4479V6.016H55.1219Z" fill="black"/>
<path d="M69.9888 13.126C69.0648 13.126 68.2368 12.976 67.5048 12.676C66.7728 12.376 66.1848 11.932 65.7408 11.344C65.3088 10.756 65.0808 10.048 65.0568 9.22H68.3328C68.3808 9.688 68.5428 10.048 68.8188 10.3C69.0948 10.54 69.4548 10.66 69.8988 10.66C70.3548 10.66 70.7148 10.558 70.9788 10.354C71.2428 10.138 71.3748 9.844 71.3748 9.472C71.3748 9.16 71.2668 8.902 71.0508 8.698C70.8468 8.494 70.5888 8.326 70.2768 8.194C69.9768 8.062 69.5448 7.912 68.9808 7.744C68.1648 7.492 67.4988 7.24 66.9828 6.988C66.4668 6.736 66.0228 6.364 65.6508 5.872C65.2788 5.38 65.0928 4.738 65.0928 3.946C65.0928 2.77 65.5188 1.852 66.3708 1.192C67.2228 0.52 68.3328 0.184 69.7008 0.184C71.0928 0.184 72.2148 0.52 73.0668 1.192C73.9188 1.852 74.3748 2.776 74.4348 3.964H71.1048C71.0808 3.556 70.9308 3.238 70.6548 3.01C70.3788 2.77 70.0248 2.65 69.5928 2.65C69.2208 2.65 68.9208 2.752 68.6928 2.956C68.4648 3.148 68.3508 3.43 68.3508 3.802C68.3508 4.21 68.5428 4.528 68.9268 4.756C69.3108 4.984 69.9108 5.23 70.7268 5.494C71.5428 5.77 72.2028 6.034 72.7068 6.286C73.2228 6.538 73.6668 6.904 74.0388 7.384C74.4108 7.864 74.5968 8.482 74.5968 9.238C74.5968 9.958 74.4108 10.612 74.0388 11.2C73.6788 11.788 73.1508 12.256 72.4548 12.604C71.7588 12.952 70.9368 13.126 69.9888 13.126ZM93.879 0.364L90.585 13H86.859L84.843 4.684L82.755 13H79.029L75.825 0.364H79.119L80.937 9.562L83.187 0.364H86.571L88.731 9.562L90.567 0.364H93.879ZM101.399 13.126C100.211 13.126 99.1186 12.85 98.1226 12.298C97.1386 11.746 96.3526 10.978 95.7646 9.994C95.1886 8.998 94.9006 7.882 94.9006 6.646C94.9006 5.41 95.1886 4.3 95.7646 3.316C96.3526 2.332 97.1386 1.564 98.1226 1.012C99.1186 0.46 100.211 0.184 101.399 0.184C102.587 0.184 103.673 0.46 104.657 1.012C105.653 1.564 106.433 2.332 106.997 3.316C107.573 4.3 107.861 5.41 107.861 6.646C107.861 7.882 107.573 8.998 106.997 9.994C106.421 10.978 105.641 11.746 104.657 12.298C103.673 12.85 102.587 13.126 101.399 13.126ZM101.399 10.318C102.407 10.318 103.211 9.982 103.811 9.31C104.423 8.638 104.729 7.75 104.729 6.646C104.729 5.53 104.423 4.642 103.811 3.982C103.211 3.31 102.407 2.974 101.399 2.974C100.379 2.974 99.5626 3.304 98.9506 3.964C98.3506 4.624 98.0506 5.518 98.0506 6.646C98.0506 7.762 98.3506 8.656 98.9506 9.328C99.5626 9.988 100.379 10.318 101.399 10.318ZM116.017 13L113.389 8.23H112.651V13H109.573V0.364H114.739C115.735 0.364 116.581 0.538 117.277 0.885999C117.985 1.234 118.513 1.714 118.861 2.326C119.209 2.926 119.383 3.598 119.383 4.342C119.383 5.182 119.143 5.932 118.663 6.592C118.195 7.252 117.499 7.72 116.575 7.996L119.491 13H116.017ZM112.651 6.052H114.559C115.123 6.052 115.543 5.914 115.819 5.638C116.107 5.362 116.251 4.972 116.251 4.468C116.251 3.988 116.107 3.61 115.819 3.334C115.543 3.058 115.123 2.92 114.559 2.92H112.651V6.052ZM126.049 0.364C127.381 0.364 128.545 0.627999 129.541 1.156C130.537 1.684 131.305 2.428 131.845 3.388C132.397 4.336 132.673 5.434 132.673 6.682C132.673 7.918 132.397 9.016 131.845 9.976C131.305 10.936 130.531 11.68 129.523 12.208C128.527 12.736 127.369 13 126.049 13H121.315V0.364H126.049ZM125.851 10.336C127.015 10.336 127.921 10.018 128.569 9.382C129.217 8.746 129.541 7.846 129.541 6.682C129.541 5.518 129.217 4.612 128.569 3.964C127.921 3.316 127.015 2.992 125.851 2.992H124.393V10.336H125.851Z" fill="#63C1FF"/>
</svg>
